<svg width="517" height="221" viewBox="0 0 517 221" fill="none" xmlns="http://www.w3.org/2000/svg">
<path fill-rule="evenodd" clip-rule="evenodd" d="M443.862 8.06569H72.632C36.9755 8.06569 8.07022 36.9548 8.07022 72.5912V148.409C8.07022 184.045 36.9755 212.934 72.632 212.934H443.862C479.519 212.934 508.424 184.045 508.424 148.409V72.5912C508.424 36.9548 479.519 8.06569 443.862 8.06569ZM72.632 0C32.5185 0 0 32.5002 0 72.5912V148.409C0 188.5 32.5185 221 72.632 221H443.862C483.976 221 516.494 188.5 516.494 148.409V72.5912C516.494 32.5002 483.976 0 443.862 0H72.632Z" fill="black"/>
<path d="M182.09 88.4513L183.71 87.2955C185.751 86.1101 187.191 85.5174 188.031 85.5174C189.892 85.5174 191.902 87.177 194.063 90.4962C195.383 92.5706 196.043 94.2302 196.043 95.4749C196.043 96.7196 195.623 97.7569 194.783 98.5867C194.003 99.4164 193.073 100.157 191.992 100.809C190.912 101.461 189.862 102.084 188.842 102.676C187.881 103.269 185.871 104.04 182.81 104.988C179.749 105.936 176.779 106.41 173.898 106.41C171.077 106.41 168.197 106.055 165.256 105.344C162.375 104.573 159.375 103.328 156.254 101.609C153.193 99.8313 150.433 97.6976 147.972 95.2082C145.511 92.6595 143.471 89.4293 141.85 85.5174C140.29 81.5462 139.51 77.2491 139.51 72.6259C139.51 68.0028 140.29 63.8242 141.85 60.0901C143.411 56.2967 145.391 53.185 147.792 50.7549C150.252 48.2655 153.043 46.191 156.164 44.5314C162.045 41.3308 167.957 39.7305 173.898 39.7305C176.719 39.7305 179.569 40.175 182.45 41.0641C185.391 41.8939 187.611 42.7533 189.112 43.6424L191.272 44.887C192.352 45.539 193.193 46.0725 193.793 46.4874C195.353 47.7321 196.133 49.1546 196.133 50.7549C196.133 52.2959 195.503 53.9259 194.243 55.6448C191.902 58.8454 189.802 60.4457 187.941 60.4457C186.861 60.4457 185.331 59.7937 183.35 58.4898C180.83 56.4745 177.469 55.4669 173.268 55.4669C169.367 55.4669 165.526 56.8005 161.745 59.4677C159.945 60.7717 158.444 62.6091 157.244 64.9799C156.044 67.3508 155.444 70.0476 155.444 73.0705C155.444 76.034 156.044 78.7012 157.244 81.072C158.444 83.4429 159.975 85.3099 161.835 86.6732C165.496 89.2811 169.307 90.5851 173.268 90.5851C175.128 90.5851 176.869 90.348 178.489 89.8738C180.17 89.3996 181.37 88.9255 182.09 88.4513Z" fill="white"/>
<path d="M198.808 73.2483C198.808 66.1357 201.328 60.2679 206.37 55.6448C211.411 51.0216 217.172 48.71 223.654 48.71C230.135 48.71 235.867 51.0216 240.848 55.6448C245.829 60.2086 248.32 66.0468 248.32 73.1594C248.32 78.0789 247.029 82.4649 244.449 86.3175C241.868 90.1109 238.717 92.9263 234.996 94.7637C231.336 96.5418 227.525 97.4309 223.564 97.4309C219.603 97.4309 215.762 96.4825 212.041 94.5859C208.32 92.6299 205.169 89.7849 202.589 86.0508C200.068 82.2575 198.808 77.9899 198.808 73.2483ZM217.622 79.6495C219.543 81.072 221.493 81.7833 223.474 81.7833C225.454 81.7833 227.435 81.0424 229.415 79.5606C231.396 78.0789 232.386 75.8858 232.386 72.9815C232.386 70.0773 231.456 67.9139 229.595 66.4914C227.735 65.0689 225.724 64.3576 223.564 64.3576C221.403 64.3576 219.393 65.0985 217.532 66.5803C215.672 68.062 214.742 70.2551 214.742 73.1594C214.742 76.0044 215.702 78.1678 217.622 79.6495Z" fill="white"/>
<path d="M263.948 40.2639L280.602 40.3528C289.304 40.3528 296.956 43.4645 303.557 49.688C310.159 55.8522 313.46 63.4685 313.46 72.537C313.46 81.5462 310.219 89.2811 303.737 95.7416C297.316 102.202 289.514 105.432 280.332 105.432H263.858C260.197 105.432 257.917 104.692 257.016 103.21C256.296 101.965 255.936 100.068 255.936 97.5198V48.0877C255.936 46.6652 255.966 45.6279 256.026 44.976C256.146 44.324 256.446 43.5535 256.926 42.6644C257.767 41.0641 260.107 40.2639 263.948 40.2639ZM280.602 89.696C284.923 89.696 288.824 88.1253 292.305 84.9839C295.786 81.7833 297.526 77.7825 297.526 72.9815C297.526 68.1806 295.816 64.1798 292.395 60.9792C289.034 57.7192 285.073 56.0893 280.512 56.0893H271.87V89.696H280.602Z" fill="white"/>
<path d="M335.254 89.7849H362.98C364.361 89.7849 365.381 89.8442 366.041 89.9627C366.761 90.022 367.572 90.2887 368.472 90.7629C370.092 91.5927 370.902 93.9042 370.902 97.6976C370.902 101.847 369.792 104.277 367.572 104.988C366.551 105.344 364.991 105.521 362.89 105.521H327.242C323.041 105.521 320.581 104.395 319.86 102.143C319.5 101.195 319.32 99.6832 319.32 97.6087V48.1766C319.32 45.1538 319.89 43.1089 321.031 42.042C322.171 40.9159 324.331 40.3528 327.512 40.3528H362.98C364.361 40.3528 365.381 40.4121 366.041 40.5306C366.761 40.5899 367.572 40.8566 368.472 41.3308C370.092 42.1606 370.902 44.4722 370.902 48.2655C370.902 52.4145 369.792 54.8446 367.572 55.5558C366.551 55.9115 364.991 56.0893 362.89 56.0893H335.254V65.0689H353.078C354.458 65.0689 355.479 65.1281 356.139 65.2467C356.859 65.3059 357.669 65.5727 358.569 66.0468C360.19 66.8766 361 69.1882 361 72.9815C361 77.1305 359.86 79.5606 357.579 80.2719C356.559 80.6275 354.999 80.8053 352.898 80.8053H335.254V89.7849Z" fill="white"/>
<path d="M64.562 156.82C64.562 149.708 67.0826 143.84 72.1238 139.217C77.165 134.594 82.9263 132.282 89.4079 132.282C95.8894 132.282 101.621 134.594 106.602 139.217C111.583 143.781 114.074 149.619 114.074 156.732C114.074 161.651 112.783 166.037 110.203 169.89C107.622 173.683 104.471 176.498 100.751 178.336C97.0897 180.114 93.2788 181.003 89.3178 181.003C85.3569 181.003 81.516 180.055 77.7951 178.158C74.0743 176.202 70.9235 173.357 68.3429 169.623C65.8223 165.83 64.562 161.562 64.562 156.82ZM83.3764 163.222C85.2969 164.644 87.2474 165.356 89.2278 165.356C91.2083 165.356 93.1888 164.615 95.1692 163.133C97.1497 161.651 98.1399 159.458 98.1399 156.554C98.1399 153.649 97.2097 151.486 95.3493 150.064C93.4888 148.641 91.4784 147.93 89.3178 147.93C87.1573 147.93 85.1469 148.671 83.2864 150.152C81.426 151.634 80.4958 153.827 80.4958 156.732C80.4958 159.577 81.456 161.74 83.3764 163.222Z" fill="white"/>
<path d="M145.858 133.438C149.999 133.438 152.43 134.564 153.15 136.816C153.51 137.943 153.69 139.424 153.69 141.262C153.69 143.099 153.48 144.581 153.06 145.707C152.7 146.774 152.1 147.545 151.259 148.019C149.999 148.73 148.169 149.086 145.768 149.086L140.007 148.73V172.557C140.007 174.809 139.707 176.499 139.107 177.625C138.566 178.692 137.696 179.403 136.496 179.758C135.356 180.114 133.855 180.292 131.995 180.292C130.134 180.292 128.634 180.114 127.494 179.758C126.414 179.344 125.633 178.721 125.153 177.891C124.673 177.002 124.373 176.202 124.253 175.491C124.193 174.78 124.163 173.742 124.163 172.379V148.819H120.922C119.362 148.7 118.252 148.345 117.592 147.752C116.451 146.626 115.881 144.462 115.881 141.262C115.881 136.402 117.652 133.971 121.192 133.971H124.163V129.259C124.163 124.696 125.813 120.576 129.114 116.901C132.415 113.167 137.186 111.3 143.428 111.3C144.808 111.3 145.828 111.36 146.488 111.478C147.208 111.537 148.019 111.804 148.919 112.278C150.539 113.049 151.349 115.331 151.349 119.124C151.349 121.969 150.839 124.014 149.819 125.259C148.979 126.207 147.659 126.74 145.858 126.859C145.318 126.859 144.478 126.859 143.338 126.859C141.117 126.859 140.007 127.6 140.007 129.082V133.971L145.858 133.438Z" fill="white"/>
<path d="M247.953 117.524C248.434 118.413 248.704 119.213 248.764 119.924C248.884 120.635 248.944 121.673 248.944 123.036V172.379C248.944 176.469 247.803 178.869 245.523 179.581C244.383 179.936 242.942 180.114 241.202 180.114C239.461 180.114 238.081 179.966 237.061 179.669C236.041 179.373 235.26 179.018 234.72 178.603C234.18 178.188 233.76 177.595 233.46 176.824C233.16 175.817 233.01 174.276 233.01 172.201V142.418C231.51 144.255 229.319 147.189 226.438 151.219C223.558 155.191 221.727 157.68 220.947 158.688C220.167 159.695 219.627 160.406 219.327 160.821C219.027 161.177 218.276 161.71 217.076 162.422C215.936 163.074 214.676 163.4 213.295 163.4C211.975 163.4 210.745 163.103 209.604 162.511C208.524 161.859 207.744 161.236 207.264 160.643L206.544 159.665C205.343 158.184 202.973 155.042 199.432 150.241C195.891 145.381 193.971 142.773 193.671 142.418V172.379C193.671 173.742 193.611 174.78 193.491 175.491C193.431 176.143 193.161 176.884 192.68 177.714C191.78 179.314 189.44 180.114 185.659 180.114C181.998 180.114 179.717 179.314 178.817 177.714C178.337 176.884 178.037 176.113 177.917 175.402C177.857 174.691 177.827 173.624 177.827 172.201V122.858C177.827 121.495 177.857 120.487 177.917 119.835C178.037 119.124 178.337 118.324 178.817 117.435C179.717 115.894 182.058 115.123 185.839 115.123C187.459 115.123 188.84 115.331 189.98 115.746C191.18 116.101 191.96 116.487 192.32 116.901L192.86 117.435L213.295 143.929C223.498 130.593 230.309 121.791 233.73 117.524C234.75 115.923 237.151 115.123 240.932 115.123C244.773 115.123 247.113 115.923 247.953 117.524Z" fill="white"/>
<path d="M299.276 117.435C299.876 116.487 300.746 115.835 301.887 115.479C303.027 115.123 304.437 114.945 306.118 114.945C307.858 114.945 309.238 115.094 310.259 115.39C311.279 115.686 312.059 116.042 312.599 116.457C313.139 116.872 313.529 117.494 313.77 118.324C314.13 119.332 314.31 120.873 314.31 122.947V149.797C314.31 157.621 311.849 164.733 306.928 171.134C304.527 174.157 301.437 176.617 297.656 178.514C293.875 180.351 289.674 181.27 285.053 181.27C280.492 181.27 276.321 180.321 272.54 178.425C268.819 176.528 265.788 174.039 263.448 170.957C258.587 164.674 256.156 157.561 256.156 149.619V122.858C256.156 121.436 256.186 120.398 256.246 119.746C256.366 119.035 256.666 118.235 257.146 117.346C257.626 116.457 258.436 115.835 259.577 115.479C260.717 115.123 262.247 114.945 264.168 114.945C266.088 114.945 267.619 115.123 268.759 115.479C269.899 115.835 270.679 116.457 271.099 117.346C271.82 118.709 272.18 120.576 272.18 122.947V149.619C272.18 153.235 273.08 156.672 274.88 159.932C275.781 161.592 277.131 162.925 278.931 163.933C280.732 164.941 282.862 165.444 285.323 165.444C289.704 165.444 292.975 163.844 295.135 160.643C297.296 157.443 298.376 153.738 298.376 149.53V122.325C298.376 120.013 298.676 118.383 299.276 117.435Z" fill="white"/>
<path d="M319.739 171.046C318.179 169.149 317.398 167.46 317.398 165.978C317.398 164.437 318.689 162.422 321.269 159.932C322.77 158.51 324.36 157.798 326.041 157.798C327.721 157.798 330.061 159.28 333.062 162.244C333.902 163.251 335.103 164.229 336.663 165.178C338.223 166.067 339.664 166.511 340.984 166.511C346.565 166.511 349.356 164.259 349.356 159.754C349.356 158.391 348.576 157.265 347.015 156.376C345.515 155.428 343.625 154.746 341.344 154.331C339.064 153.916 336.603 153.264 333.962 152.375C331.322 151.427 328.861 150.33 326.581 149.086C324.3 147.841 322.38 145.885 320.819 143.218C319.319 140.491 318.569 137.231 318.569 133.438C318.569 128.222 320.519 123.688 324.42 119.835C328.381 115.923 333.752 113.967 340.534 113.967C344.135 113.967 347.406 114.442 350.346 115.39C353.347 116.279 355.417 117.198 356.558 118.146L358.808 119.835C360.669 121.554 361.599 123.006 361.599 124.192C361.599 125.377 360.879 127.007 359.438 129.082C357.398 132.045 355.297 133.527 353.137 133.527C351.877 133.527 350.316 132.934 348.456 131.749C348.276 131.63 347.916 131.334 347.376 130.86C346.895 130.386 346.445 130 346.025 129.704C344.765 128.933 343.145 128.548 341.164 128.548C339.244 128.548 337.623 129.022 336.303 129.971C335.043 130.86 334.412 132.134 334.412 133.794C334.412 135.394 335.163 136.698 336.663 137.706C338.223 138.713 340.144 139.395 342.424 139.75C344.705 140.106 347.195 140.669 349.896 141.44C352.597 142.151 355.087 143.04 357.368 144.107C359.648 145.174 361.539 147.041 363.039 149.708C364.6 152.316 365.38 155.546 365.38 159.399C365.38 163.251 364.6 166.659 363.039 169.623C361.479 172.527 359.438 174.78 356.918 176.38C352.057 179.521 346.865 181.092 341.344 181.092C338.523 181.092 335.853 180.766 333.332 180.114C330.812 179.403 328.771 178.543 327.211 177.536C324.03 175.639 321.81 173.802 320.549 172.024L319.739 171.046Z" fill="white"/>
<path d="M371.232 141.173C371.232 139.81 371.262 138.802 371.322 138.15C371.442 137.439 371.712 136.639 372.132 135.75C372.972 134.209 375.313 133.438 379.154 133.438C382.034 133.438 384.075 133.942 385.275 134.949C386.295 135.779 386.836 137.054 386.896 138.772C386.956 139.365 386.986 140.225 386.986 141.351V172.468C386.986 173.831 386.926 174.869 386.806 175.58C386.745 176.232 386.475 177.002 385.995 177.891C385.215 179.432 382.905 180.203 379.064 180.203C375.283 180.203 372.972 179.403 372.132 177.802C371.712 176.913 371.442 176.143 371.322 175.491C371.262 174.839 371.232 173.802 371.232 172.379V141.173Z" fill="white"/>
<path d="M435.406 163.133L437.027 161.977C439.067 160.792 440.508 160.199 441.348 160.199C443.208 160.199 445.219 161.859 447.379 165.178C448.7 167.252 449.36 168.912 449.36 170.156C449.36 171.401 448.94 172.438 448.099 173.268C447.319 174.098 446.389 174.839 445.309 175.491C444.229 176.143 443.178 176.765 442.158 177.358C441.198 177.951 439.187 178.721 436.127 179.669C433.066 180.618 430.095 181.092 427.214 181.092C424.394 181.092 421.513 180.736 418.572 180.025C415.692 179.255 412.691 178.01 409.57 176.291C406.51 174.513 403.749 172.379 401.288 169.89C398.828 167.341 396.787 164.111 395.167 160.199C393.607 156.228 392.826 151.931 392.826 147.307C392.826 142.684 393.607 138.506 395.167 134.772C396.727 130.978 398.708 127.867 401.108 125.436C403.569 122.947 406.36 120.873 409.48 119.213C415.362 116.012 421.273 114.412 427.214 114.412C430.035 114.412 432.886 114.857 435.767 115.746C438.707 116.575 440.928 117.435 442.428 118.324L444.589 119.569C445.669 120.221 446.509 120.754 447.109 121.169C448.67 122.414 449.45 123.836 449.45 125.436C449.45 126.978 448.82 128.607 447.559 130.326C445.219 133.527 443.118 135.127 441.258 135.127C440.178 135.127 438.647 134.475 436.667 133.171C434.146 131.156 430.785 130.149 426.584 130.149C422.683 130.149 418.843 131.482 415.062 134.149C413.261 135.453 411.761 137.291 410.561 139.662C409.36 142.032 408.76 144.729 408.76 147.752C408.76 150.716 409.36 153.383 410.561 155.754C411.761 158.124 413.291 159.992 415.152 161.355C418.812 163.963 422.623 165.267 426.584 165.267C428.445 165.267 430.185 165.03 431.806 164.555C433.486 164.081 434.686 163.607 435.406 163.133Z" fill="white"/>
<path d="M383.745 126.77C384.885 126.414 385.665 125.822 386.085 124.992C386.565 124.103 386.836 123.332 386.896 122.68C387.016 121.969 387.076 120.932 387.076 119.569C387.076 118.205 387.016 117.198 386.896 116.546C386.836 115.835 386.565 115.034 386.085 114.145C385.305 112.545 383.025 111.745 379.244 111.745C375.403 111.745 373.062 112.545 372.222 114.145C371.802 114.975 371.532 115.746 371.412 116.457C371.352 117.109 371.322 118.116 371.322 119.48C371.322 120.843 371.352 121.88 371.412 122.591C371.532 123.243 371.802 124.014 372.222 124.903C372.702 125.792 373.512 126.414 374.653 126.77C375.793 127.126 377.293 127.303 379.154 127.303C381.074 127.303 382.605 127.126 383.745 126.77Z" fill="white"/>
<path fill-rule="evenodd" clip-rule="evenodd" d="M193.473 45.5845C195.041 46.8468 195.825 48.2894 195.825 49.9123C195.825 51.475 195.192 53.128 193.925 54.8711C191.573 58.1169 189.461 59.7398 187.592 59.7398C186.506 59.7398 184.968 59.0786 182.977 57.7562C180.444 55.7126 177.066 54.6908 172.844 54.6908C168.923 54.6908 165.063 56.0432 161.263 58.748C159.453 60.0704 157.945 61.9337 156.739 64.338C155.532 66.7423 154.929 69.4772 154.929 72.5426C154.929 75.548 155.532 78.2528 156.739 80.6571C157.945 83.0614 159.483 84.9548 161.353 86.3372C165.033 88.982 168.863 90.3043 172.844 90.3043C174.714 90.3043 176.463 90.0639 178.091 89.583C179.78 89.1022 180.987 88.6213 181.711 88.1405L183.339 86.9684C185.39 85.7662 186.838 85.1652 187.682 85.1652C189.552 85.1652 191.573 86.8482 193.744 90.2142C195.071 92.3179 195.735 94.0009 195.735 95.2632C195.735 96.5254 195.312 97.5773 194.468 98.4188C193.684 99.2603 192.749 100.012 191.663 100.673C190.577 101.334 189.522 101.965 188.496 102.566C187.531 103.167 185.511 103.949 182.434 104.91C179.358 105.872 176.372 106.353 173.477 106.353C170.642 106.353 167.747 105.992 164.791 105.271C161.896 104.49 158.88 103.227 155.744 101.484C152.667 99.681 149.893 97.5172 147.42 94.9927C144.947 92.4081 142.896 89.1322 141.267 85.1652C139.699 81.138 138.915 76.7802 138.915 72.0918C138.915 67.4035 139.699 63.1659 141.267 59.3791C142.835 55.5323 144.826 52.3766 147.239 49.9123C149.712 47.3877 152.517 45.284 155.653 43.601C161.564 40.3552 167.506 38.7323 173.477 38.7323C176.312 38.7323 179.177 39.1831 182.072 40.0847C185.028 40.9262 187.26 41.7978 188.768 42.6994L190.939 43.9616C192.025 44.6228 192.869 45.1638 193.473 45.5845ZM192.061 37.1452C189.859 35.8359 187.038 34.793 183.926 33.9033C180.475 32.8363 176.985 32.2812 173.477 32.2812C166.287 32.2812 159.289 34.2439 152.556 37.9361C148.856 39.9247 145.533 42.4183 142.606 45.4062L142.604 45.4075C139.503 48.5754 137.095 52.4769 135.275 56.9352C133.345 61.6024 132.44 66.6867 132.44 72.0918C132.44 77.51 133.349 82.6662 135.231 87.4988L135.253 87.5534L135.275 87.6076C137.15 92.1741 139.604 96.1731 142.734 99.4442L142.76 99.4716L142.787 99.4988C145.664 102.436 148.894 104.954 152.461 107.045L152.525 107.082L152.59 107.118C156.1 109.069 159.606 110.555 163.099 111.498L163.175 111.518L163.251 111.537C166.674 112.372 170.087 112.804 173.477 112.804C173.616 112.804 173.755 112.803 173.894 112.801C173.5 113.251 173.136 113.752 172.813 114.309L172.759 114.402L172.708 114.497C172.016 115.79 171.402 117.281 171.13 118.907L171.091 119.144L171.069 119.383C170.98 120.351 170.952 121.616 170.952 123.033V173.072C170.952 174.555 170.981 175.855 171.065 176.853L171.087 177.117L171.13 177.378C171.408 179.04 172.044 180.538 172.783 181.833C174.211 184.369 176.494 185.803 178.651 186.566C180.754 187.311 183.058 187.547 185.297 187.547C187.58 187.547 189.913 187.314 192.03 186.584C194.188 185.839 196.536 184.419 197.993 181.833C198.7 180.593 199.378 179.037 199.589 177.256C199.772 176.048 199.824 174.653 199.824 173.252V162.579C200.34 163.255 200.778 163.819 201.136 164.269L201.863 165.265L201.956 165.381C203.115 166.824 204.621 167.916 205.988 168.749L206.165 168.857L206.349 168.953C208.448 170.054 210.723 170.597 213.074 170.597C215.544 170.597 217.938 169.995 220.118 168.737L220.162 168.712L220.205 168.686C220.893 168.275 221.55 167.857 222.127 167.443C222.606 167.099 223.417 166.489 224.11 165.661L224.264 165.476L224.404 165.281C224.638 164.955 225.122 164.31 225.908 163.286C226.049 163.102 226.217 162.879 226.414 162.615V173.072C226.414 175.315 226.557 177.639 227.13 179.58L227.204 179.832L227.298 180.076C227.929 181.71 228.973 183.37 230.633 184.656C232.07 185.77 233.713 186.418 235.133 186.834C237.007 187.384 239.094 187.547 241.122 187.547C243.26 187.547 245.422 187.334 247.415 186.707C254.105 184.602 255.377 177.888 255.377 173.252V171.354C256.257 172.841 257.237 174.292 258.319 175.704C261.297 179.654 265.115 182.784 269.649 185.116L269.668 185.125L269.687 185.135C274.463 187.552 279.671 188.719 285.195 188.719C290.734 188.719 295.948 187.602 300.721 185.262L300.757 185.243L300.794 185.225C305.359 182.914 309.229 179.841 312.276 175.971L312.307 175.931L312.338 175.891C312.792 175.295 313.228 174.693 313.647 174.085C314.086 174.756 314.557 175.385 315.032 175.968L315.726 176.813C317.734 179.571 320.748 181.905 324.128 183.948C326.389 185.402 329.059 186.479 331.94 187.299L332.009 187.319L332.079 187.337C335.19 188.149 338.428 188.539 341.772 188.539C348.64 188.539 355.073 186.547 360.949 182.721C362.757 181.56 364.36 180.174 365.766 178.593C366.042 179.615 366.431 180.589 366.849 181.48L366.906 181.602L366.968 181.721C368.378 184.432 370.773 185.906 372.948 186.665C375.066 187.406 377.405 187.638 379.682 187.638C381.96 187.638 384.292 187.418 386.391 186.712C388.495 186.004 390.969 184.582 392.394 181.818C393.043 180.595 393.68 179.065 393.883 177.346C394.066 176.138 394.119 174.744 394.119 173.342V171.238C395.1 172.647 396.17 173.963 397.334 175.179L397.36 175.207L397.387 175.234C400.264 178.171 403.494 180.689 407.061 182.78L407.125 182.817L407.19 182.853C410.7 184.804 414.206 186.29 417.699 187.233L417.775 187.253L417.851 187.272C421.274 188.107 424.687 188.539 428.077 188.539C431.7 188.539 435.34 187.936 438.973 186.801C441.895 185.887 444.658 184.911 446.437 183.828C447.477 183.217 448.545 182.579 449.639 181.912C451.148 180.994 452.53 179.904 453.739 178.622C455.814 176.506 456.809 173.815 456.809 170.998C456.809 167.82 455.281 164.824 453.826 162.516L453.808 162.489L453.79 162.461C452.515 160.485 451.056 158.632 449.352 157.213C447.647 155.792 445.251 154.449 442.282 154.449C440.557 154.449 439.026 155.001 438.073 155.396C436.975 155.852 435.821 156.461 434.656 157.143L434.395 157.297L432.744 158.484C432.692 158.509 432.599 158.551 432.458 158.607C432.117 158.743 431.613 158.916 430.913 159.115L430.882 159.124L430.852 159.133C429.877 159.421 428.753 159.588 427.444 159.588C425.019 159.588 422.501 158.815 419.779 156.868C418.857 156.178 417.944 155.131 417.13 153.507C416.423 152.1 416.004 150.401 416.004 148.278C416.004 146.072 416.432 144.348 417.13 142.958C417.959 141.306 418.843 140.314 419.663 139.706C422.565 137.65 425.125 136.877 427.444 136.877C430.627 136.877 432.426 137.636 433.503 138.505L433.736 138.693L433.986 138.859C435.18 139.652 436.416 140.368 437.659 140.902C438.844 141.412 440.42 141.926 442.192 141.926C445.055 141.926 447.413 140.687 449.132 139.365C450.861 138.036 452.394 136.286 453.769 134.39C455.541 131.952 456.899 128.996 456.899 125.647C456.899 121.618 454.833 118.468 452.141 116.301L451.968 116.162L451.786 116.035C451.022 115.502 450.046 114.881 448.915 114.192L448.859 114.158L446.66 112.88C444.458 111.571 441.638 110.528 438.526 109.638C435.075 108.571 431.585 108.016 428.077 108.016C420.887 108.016 413.889 109.979 407.156 113.671C403.456 115.66 400.133 118.153 397.206 121.141L397.204 121.143C395.857 122.519 394.64 124.034 393.546 125.673C393.74 125.051 393.892 124.391 393.974 123.7C394.156 122.493 394.209 121.098 394.209 119.697C394.209 118.354 394.162 116.968 393.973 115.771C393.777 114.068 393.179 112.54 392.505 111.26C391.133 108.535 388.746 107.052 386.6 106.292C384.48 105.542 382.134 105.312 379.863 105.312C378.706 105.312 377.534 105.37 376.385 105.522C377.639 102.89 377.954 99.8889 377.954 97.5172C377.954 95.2262 377.723 92.8814 376.987 90.7638C376.238 88.6084 374.778 86.1999 372.056 84.7781C370.757 84.0906 369.199 83.476 367.458 83.2767C366.603 83.1429 365.651 83.0806 364.687 83.0558C367.389 80.0382 368.001 75.7105 368.001 72.4525C368.001 70.1615 367.77 67.8168 367.035 65.6992C366.578 64.3837 365.856 62.974 364.744 61.7519C366.61 61.6888 368.526 61.4692 370.207 60.892C376.812 58.7077 377.954 51.9062 377.954 47.3877C377.954 45.0968 377.723 42.752 376.987 40.6344C376.238 38.4789 374.778 36.0704 372.056 34.6486C370.757 33.9611 369.199 33.3466 367.458 33.1473C366.256 32.9594 364.865 32.9124 363.518 32.9124H327.87C324.437 32.9124 319.939 33.4163 316.838 36.4547C313.674 39.4954 313.162 43.9721 313.162 47.2976V49.6933C311.738 47.7448 310.101 45.8962 308.252 44.1529C300.485 36.7694 291.226 32.9168 280.74 32.9124C280.734 32.9124 280.728 32.9124 280.722 32.9124L264.001 32.8222H263.983C261.684 32.8222 259.331 33.0527 257.206 33.7858C255.042 34.532 252.626 35.9877 251.199 38.6993C250.552 39.9113 249.935 41.3432 249.652 42.8979L249.6 43.1811L249.574 43.4678C249.485 44.4403 249.457 45.7409 249.457 47.2074V55.0277C248.243 53.296 246.819 51.669 245.184 50.1557C239.053 44.4201 231.736 41.3875 223.485 41.3875C215.489 41.3875 208.354 44.234 202.295 49.6113C202.195 45.7256 200.166 42.6791 197.541 40.5662L197.368 40.4269L197.186 40.2998C196.422 39.7668 195.446 39.1459 194.315 38.4572L194.259 38.4228L192.061 37.1452ZM193.001 64.6606C191.502 65.5309 189.681 66.1908 187.592 66.1908C185.82 66.1908 184.244 65.6764 183.059 65.1673C181.816 64.6328 180.58 63.9174 179.386 63.1237L179.136 62.958L178.903 62.7701C177.826 61.9008 176.027 61.1418 172.844 61.1418C170.525 61.1418 167.965 61.9144 165.063 63.971C164.243 64.5784 163.359 65.5707 162.53 67.2228C161.832 68.613 161.404 70.3373 161.404 72.5426C161.404 74.6661 161.823 76.3648 162.53 77.7723C163.344 79.3961 164.257 80.4429 165.18 81.1332C167.901 83.0799 170.419 83.8533 172.844 83.8533C174.153 83.8533 175.277 83.6856 176.252 83.3978L176.282 83.3889L176.313 83.3802C177.013 83.1807 177.517 83.0083 177.858 82.8722C177.999 82.816 178.092 82.7742 178.144 82.7493L179.795 81.5616L180.056 81.4081C181.221 80.7256 182.375 80.117 183.473 79.6612C184.426 79.2654 185.957 78.7141 187.682 78.7141C189.71 78.7141 191.471 79.3409 192.927 80.191C192.333 77.7917 192.039 75.2975 192.039 72.7229C192.039 69.9089 192.359 67.2161 193.001 64.6606ZM202.208 95.419C202.172 98.1785 201.175 100.809 199.139 102.887C197.93 104.169 196.547 105.259 195.039 106.177C193.945 106.844 192.877 107.482 191.837 108.093C191.237 108.458 190.525 108.811 189.733 109.153C190.391 109.293 191.041 109.471 191.68 109.695C192.447 109.932 193.255 110.228 194.029 110.613C194.737 110.966 195.758 111.56 196.675 112.534L197.422 113.279L213.057 133.732C220.356 124.134 225.468 117.49 228.369 113.829C231.421 109.412 236.968 108.738 240.851 108.738C243.15 108.738 245.503 108.968 247.628 109.701C249.27 110.268 251.059 111.243 252.449 112.866C253.359 111.729 254.467 110.859 255.666 110.221C254.107 109.444 252.563 108.249 251.465 106.426L251.429 106.367L251.395 106.308C249.83 103.578 249.457 100.292 249.457 97.3369V90.0161C246.359 94.4712 242.476 97.9724 237.781 100.312L237.762 100.321L237.742 100.331C233.202 102.556 228.396 103.698 223.394 103.698C218.321 103.698 213.448 102.462 208.844 100.094L208.807 100.075L208.771 100.056C206.377 98.7864 204.19 97.2337 202.208 95.419ZM274.95 111.812C275.745 112.566 276.438 113.481 276.971 114.575C278.321 117.217 278.731 120.233 278.731 123.123V150.171C278.731 152.728 279.349 155.156 280.655 157.541L280.667 157.562L280.678 157.584C280.956 158.1 281.395 158.601 282.235 159.075C282.902 159.451 283.9 159.769 285.466 159.769C288.021 159.769 289.136 158.976 289.941 157.773C291.338 155.686 292.111 153.2 292.111 150.081V122.492C292.111 119.981 292.363 116.724 294 114.114C295.468 111.774 297.639 110.193 300.165 109.398C302.139 108.776 304.262 108.557 306.367 108.557C308.395 108.557 310.481 108.721 312.356 109.27C313.776 109.686 315.418 110.335 316.856 111.449C318.399 112.645 319.36 114.161 319.941 115.65C320.021 115.568 320.102 115.487 320.184 115.406C321.612 113.982 323.161 112.766 324.815 111.746C320.608 111.257 315.825 109.454 314.056 104.123C313.315 102.05 313.162 99.6078 313.162 97.427V94.6408C311.823 96.5311 310.297 98.3398 308.584 100.063C300.912 107.846 291.409 111.812 280.45 111.812H274.95ZM303.974 95.5337C308.896 90.5837 311.959 84.8961 313.162 78.4708C313.551 76.3917 313.746 74.2353 313.746 72.0017C313.746 69.7739 313.551 67.6325 313.162 65.5775C311.944 59.1496 308.821 53.5672 303.793 48.8303C297.158 42.5191 289.468 39.3634 280.722 39.3634L263.983 39.2733C260.123 39.2733 257.771 40.0847 256.926 41.7076C256.444 42.6092 256.142 43.3906 256.021 44.0518C255.961 44.713 255.931 45.7649 255.931 47.2074V97.3369C255.931 99.9215 256.293 101.845 257.017 103.107C257.921 104.61 260.214 105.361 263.893 105.361H280.45C289.679 105.361 297.52 102.085 303.974 95.5337ZM319.636 97.427C319.636 99.5308 319.817 101.064 320.179 102.025C320.903 104.309 323.376 105.451 327.598 105.451H363.427C365.538 105.451 367.107 105.271 368.132 104.91C370.364 104.189 371.48 101.725 371.48 97.5172C371.48 93.6703 370.665 91.3261 369.037 90.4846C368.132 90.0038 367.318 89.7333 366.594 89.6732C365.93 89.553 364.905 89.4929 363.518 89.4929H335.651V80.3866H353.384C355.495 80.3866 357.064 80.2063 358.089 79.8457C360.381 79.1244 361.527 76.66 361.527 72.4525C361.527 68.6056 360.713 66.2614 359.084 65.4199C358.18 64.9391 357.365 64.6686 356.641 64.6085C355.978 64.4883 354.952 64.4282 353.565 64.4282H335.651V55.3219H363.427C365.538 55.3219 367.107 55.1416 368.132 54.7809C370.364 54.0597 371.48 51.5953 371.48 47.3877C371.48 43.5409 370.665 41.1967 369.037 40.3552C368.132 39.8743 367.318 39.6039 366.594 39.5438C365.93 39.4235 364.905 39.3634 363.518 39.3634H327.87C324.673 39.3634 322.501 39.9345 321.355 41.0765C320.209 42.1584 319.636 44.2321 319.636 47.2976V97.427ZM359.176 111.902C359.862 112.296 360.503 112.726 361.083 113.196L363.506 115.031L363.747 115.256C364.345 115.814 364.93 116.406 365.474 117.033C365.491 116.644 365.514 116.284 365.544 115.957L365.566 115.718L365.606 115.481C365.83 114.141 366.269 112.886 366.808 111.738C365.68 111.863 364.532 111.902 363.427 111.902H359.176ZM367.582 128.962C366.94 130.476 366.087 131.844 365.303 132.983C363.952 134.962 362.178 137.001 359.936 138.422C360.175 138.53 360.412 138.64 360.648 138.751C362.417 139.586 363.974 140.687 365.337 141.995V141.606C365.337 140.19 365.365 138.924 365.454 137.956L365.475 137.717L365.515 137.48C365.76 136.017 366.261 134.633 366.849 133.378L366.927 133.211L367.015 133.048C367.545 132.067 368.205 131.258 368.932 130.591C368.438 130.11 367.984 129.568 367.582 128.962ZM377.28 127.41C378.024 127.497 378.855 127.541 379.773 127.541C380.685 127.541 381.509 127.501 382.246 127.42C383.069 127.33 383.783 127.19 384.387 127C385.533 126.639 386.317 126.038 386.74 125.197C387.222 124.295 387.494 123.514 387.554 122.852C387.675 122.131 387.735 121.079 387.735 119.697C387.735 118.314 387.675 117.292 387.554 116.631C387.494 115.91 387.222 115.099 386.74 114.197C385.955 112.574 383.663 111.763 379.863 111.763C376.003 111.763 373.651 112.574 372.806 114.197C372.384 115.038 372.112 115.82 371.992 116.541C371.931 117.202 371.901 118.224 371.901 119.607C371.901 120.989 371.931 122.041 371.992 122.762C372.112 123.423 372.384 124.205 372.806 125.106C373.289 126.008 374.103 126.639 375.249 127C375.832 127.183 376.509 127.32 377.28 127.41ZM390.859 130.437C390.755 130.544 390.648 130.649 390.54 130.751C390.58 130.788 390.62 130.826 390.66 130.864C390.725 130.721 390.792 130.578 390.859 130.437ZM387.554 139.172C387.494 137.428 386.951 136.136 385.925 135.295C385.087 134.584 383.84 134.121 382.185 133.904C381.459 133.809 380.655 133.762 379.773 133.762C378.858 133.762 378.028 133.806 377.283 133.893C374.882 134.176 373.36 134.914 372.716 136.106C372.293 137.008 372.022 137.819 371.901 138.54C371.841 139.202 371.811 140.223 371.811 141.606V173.252C371.811 174.695 371.841 175.747 371.901 176.408C372.022 177.069 372.293 177.851 372.716 178.752C373.56 180.375 375.882 181.186 379.682 181.186C383.543 181.186 385.865 180.405 386.649 178.842C387.132 177.941 387.403 177.159 387.463 176.498C387.584 175.777 387.644 174.725 387.644 173.342V141.786C387.644 141.335 387.64 140.926 387.63 140.56C387.616 139.998 387.59 139.535 387.554 139.172ZM394.115 141.069C394.07 141.307 394.028 141.546 393.989 141.786C393.673 143.709 393.515 145.723 393.515 147.827C393.515 150.202 393.716 152.493 394.119 154.698C394.511 156.846 395.094 158.913 395.867 160.9C397.496 164.867 399.547 168.143 402.02 170.728C404.493 173.252 407.267 175.416 410.344 177.219C413.48 178.962 416.496 180.225 419.391 181.006C422.347 181.727 425.242 182.088 428.077 182.088C430.972 182.088 433.958 181.607 437.034 180.645C440.111 179.684 442.131 178.902 443.096 178.301C444.122 177.7 445.177 177.069 446.263 176.408C447.349 175.747 448.284 174.995 449.068 174.154C449.912 173.312 450.335 172.261 450.335 170.998C450.335 169.736 449.671 168.053 448.344 165.949C446.173 162.583 444.152 160.9 442.282 160.9C441.438 160.9 439.99 161.501 437.939 162.703L436.311 163.876C435.587 164.356 434.38 164.837 432.691 165.318C431.063 165.799 429.314 166.039 427.444 166.039C423.463 166.039 419.633 164.717 415.953 162.072C414.083 160.69 412.545 158.797 411.339 156.392C410.132 153.988 409.529 151.283 409.529 148.278C409.529 145.212 410.132 142.477 411.339 140.073C412.545 137.669 414.053 135.805 415.863 134.483C419.663 131.778 423.523 130.426 427.444 130.426C431.666 130.426 435.044 131.448 437.577 133.491C439.568 134.814 441.106 135.475 442.192 135.475C444.061 135.475 446.173 133.852 448.525 130.606C449.792 128.863 450.425 127.21 450.425 125.647C450.425 124.024 449.641 122.582 448.073 121.32C447.469 120.899 446.625 120.358 445.539 119.697L443.368 118.435C441.86 117.533 439.628 116.661 436.673 115.82C433.777 114.918 430.912 114.467 428.077 114.467C422.106 114.467 416.164 116.09 410.253 119.336C407.117 121.019 404.312 123.123 401.839 125.647C399.426 128.112 397.435 131.267 395.867 135.114C395.091 136.989 394.507 138.974 394.115 141.069ZM363.577 150.261C362.069 147.556 360.169 145.663 357.877 144.581C355.585 143.499 353.081 142.598 350.367 141.876C347.653 141.095 345.149 140.524 342.857 140.163C340.565 139.803 338.635 139.111 337.067 138.09C335.559 137.068 334.805 135.745 334.805 134.122C334.805 132.439 335.438 131.147 336.705 130.246C338.032 129.284 339.661 128.803 341.591 128.803C343.581 128.803 345.21 129.194 346.476 129.975C346.899 130.276 347.351 130.666 347.834 131.147C348.376 131.628 348.738 131.929 348.919 132.049C350.789 133.251 352.358 133.852 353.624 133.852C355.796 133.852 357.907 132.349 359.958 129.344C361.405 127.24 362.129 125.587 362.129 124.385C362.129 123.183 361.194 121.71 359.324 119.967L357.062 118.254C355.916 117.292 353.835 116.361 350.819 115.459C347.864 114.497 344.576 114.017 340.957 114.017C334.141 114.017 328.743 116 324.762 119.967C323.236 121.488 322.007 123.114 321.074 124.844C319.612 127.559 318.881 130.531 318.881 133.762C318.881 137.55 319.612 140.814 321.074 143.553C321.097 143.595 321.12 143.637 321.143 143.68C322.711 146.384 324.641 148.368 326.933 149.63C329.225 150.892 331.698 152.004 334.353 152.966C337.007 153.868 339.48 154.529 341.772 154.95C344.064 155.37 345.964 156.062 347.472 157.023C349.04 157.925 349.824 159.067 349.824 160.449C349.824 165.018 347.019 167.302 341.41 167.302C340.083 167.302 338.635 166.851 337.067 165.949C335.499 164.988 334.292 163.996 333.448 162.974C330.432 159.969 328.079 158.466 326.391 158.466C324.702 158.466 323.103 159.187 321.595 160.63C320.438 161.756 319.539 162.787 318.898 163.722C318.102 164.882 317.705 165.895 317.705 166.761C317.705 166.775 317.705 166.79 317.705 166.805C317.72 168.297 318.504 169.995 320.057 171.9L320.871 172.892C322.138 174.695 324.37 176.558 327.567 178.482C329.135 179.503 331.186 180.375 333.719 181.096C336.253 181.757 338.937 182.088 341.772 182.088C347.321 182.088 352.538 180.495 357.424 177.31C359.958 175.687 362.008 173.403 363.577 170.457C364.358 168.96 364.945 167.351 365.337 165.631C365.732 163.897 365.929 162.05 365.929 160.089C365.929 158.128 365.732 156.326 365.337 154.683C364.945 153.053 364.358 151.579 363.577 150.261ZM314.6 123.123C314.6 121.019 314.419 119.456 314.057 118.435C313.816 117.593 313.424 116.962 312.881 116.541C312.338 116.12 311.554 115.76 310.529 115.459C309.503 115.159 308.116 115.008 306.367 115.008C304.678 115.008 303.26 115.189 302.114 115.549C300.968 115.91 300.094 116.571 299.49 117.533C298.887 118.495 298.586 120.148 298.586 122.492V150.081C298.586 154.349 297.5 158.105 295.328 161.351C293.157 164.597 289.87 166.22 285.466 166.22C282.993 166.22 280.852 165.709 279.043 164.687C277.233 163.665 275.876 162.313 274.971 160.63C273.162 157.324 272.257 153.838 272.257 150.171V123.123C272.257 120.719 271.895 118.825 271.171 117.443C270.749 116.541 269.965 115.91 268.819 115.549C267.673 115.189 266.134 115.008 264.204 115.008C262.274 115.008 260.736 115.189 259.59 115.549C258.444 115.91 257.63 116.541 257.147 117.443C256.665 118.344 256.363 119.156 256.242 119.877C256.182 120.538 256.152 121.59 256.152 123.033V150.171C256.152 158.226 258.595 165.438 263.48 171.81C265.833 174.935 268.879 177.46 272.619 179.383C276.419 181.307 280.611 182.268 285.195 182.268C289.84 182.268 294.062 181.337 297.862 179.473C301.662 177.55 304.768 175.056 307.181 171.99C308.867 169.778 310.265 167.481 311.377 165.101C312.011 163.742 312.552 162.355 312.999 160.941C314.067 157.567 314.6 154.037 314.6 150.351V123.123ZM341.279 134.122C341.279 133.894 341.214 133.52 341 133.145C340.875 132.925 340.754 132.803 340.706 132.758M247.908 117.623C247.063 116 244.711 115.189 240.851 115.189C237.051 115.189 234.638 116 233.612 117.623C230.649 121.353 225.155 128.498 217.129 139.059C215.842 140.752 214.491 142.532 213.074 144.401L192.536 117.533L191.993 116.992C191.631 116.571 190.847 116.18 189.64 115.82C188.494 115.399 187.107 115.189 185.478 115.189C181.678 115.189 179.326 115.97 178.421 117.533C177.939 118.435 177.637 119.246 177.516 119.967C177.456 120.628 177.426 121.65 177.426 123.033V173.072C177.426 174.515 177.456 175.596 177.516 176.318C177.637 177.039 177.939 177.82 178.421 178.662C179.326 180.285 181.618 181.096 185.297 181.096C189.098 181.096 191.45 180.285 192.355 178.662C192.837 177.82 193.109 177.069 193.169 176.408C193.29 175.687 193.35 174.635 193.35 173.252V142.868C193.652 143.229 195.582 145.873 199.141 150.802C199.373 151.121 199.601 151.432 199.824 151.737C203.006 156.081 205.161 158.955 206.288 160.359L207.012 161.351C207.495 161.952 208.279 162.583 209.364 163.244C210.51 163.846 211.747 164.146 213.074 164.146C214.461 164.146 215.728 163.815 216.874 163.154C218.08 162.433 218.834 161.892 219.136 161.531C219.438 161.111 219.98 160.389 220.765 159.368C221.549 158.346 223.388 155.821 226.284 151.794C226.327 151.732 226.371 151.671 226.414 151.61C229.245 147.617 231.403 144.703 232.889 142.868V173.072C232.889 175.176 233.039 176.739 233.341 177.76C233.643 178.542 234.065 179.143 234.608 179.564C235.15 179.984 235.935 180.345 236.96 180.645C237.985 180.946 239.373 181.096 241.122 181.096C242.871 181.096 244.319 180.916 245.465 180.555C247.757 179.834 248.903 177.4 248.903 173.252V123.213C248.903 121.831 248.843 120.779 248.722 120.057C248.662 119.336 248.39 118.525 247.908 117.623ZM288.079 64.9238L288.037 64.883C285.826 62.7187 283.457 61.773 280.631 61.773H278.42V82.9517H280.722C283.287 82.9517 285.678 82.0745 288.094 79.8827C290.229 77.8921 291.257 75.5649 291.257 72.4525C291.257 69.2919 290.224 66.9484 288.121 64.9637L288.079 64.9238ZM292.484 84.6242C288.985 87.8099 285.065 89.4027 280.722 89.4027H271.945V55.3219H280.631C285.215 55.3219 289.196 56.9749 292.574 60.2808C296.012 63.5265 297.731 67.5838 297.731 72.4525C297.731 77.3212 295.982 81.3784 292.484 84.6242ZM114.846 174.306L114.833 174.325C111.687 178.991 107.704 182.647 102.855 185.063L102.835 185.072L102.816 185.082C98.2754 187.307 93.4704 188.449 88.4683 188.449C83.395 188.449 78.5215 187.213 73.9177 184.845L73.8813 184.826L73.8451 184.807C69.1032 182.292 65.1715 178.666 62.0395 174.094L62.0064 174.045L61.9742 173.997C58.7162 169.049 57.1128 163.481 57.1128 157.474C57.1128 148.562 60.3275 140.867 66.7815 134.895C72.9651 129.173 80.3033 126.139 88.5588 126.139C96.6813 126.139 103.898 129.077 109.97 134.64C110.308 133.859 110.727 133.101 111.245 132.384C112.785 130.251 114.831 128.954 117.044 128.322C117.32 122.481 119.608 117.228 123.606 112.73C128.443 107.222 135.211 104.861 142.852 104.861C144.2 104.861 145.591 104.908 146.793 105.096C148.501 105.291 150.035 105.887 151.32 106.559C154.082 107.94 155.561 110.354 156.313 112.491C157.059 114.61 157.289 116.961 157.289 119.246C157.289 122.571 156.76 126.482 154.338 129.489C156.293 130.692 157.933 132.516 158.798 135.246C159.437 137.264 159.641 139.497 159.641 141.696C159.641 143.927 159.403 146.236 158.642 148.341C157.862 150.611 156.368 152.765 153.936 154.149C151.458 155.56 148.582 156.011 145.888 156.073V173.433C145.888 176.052 145.58 178.999 144.27 181.517C142.899 184.208 140.595 186.05 137.793 186.9C135.779 187.527 133.553 187.728 131.362 187.728C129.155 187.728 126.914 187.525 124.888 186.887L124.687 186.824L124.491 186.748C122.307 185.902 120.221 184.409 118.864 182.043L118.817 181.961L118.773 181.878C118.081 180.585 117.466 179.094 117.194 177.468L117.151 177.207L117.129 176.944C117.046 175.95 117.016 174.684 117.016 173.252V170.451C116.4 171.768 115.681 173.048 114.859 174.287L114.846 174.306ZM120.233 149.36H123.49V173.252C123.49 174.635 123.52 175.687 123.581 176.408C123.701 177.129 124.003 177.941 124.485 178.842C124.968 179.684 125.752 180.315 126.838 180.736C127.984 181.096 129.492 181.277 131.362 181.277C133.232 181.277 134.739 181.096 135.886 180.736C137.092 180.375 137.967 179.654 138.509 178.572C139.113 177.43 139.414 175.717 139.414 173.433V149.27L145.205 149.63C145.438 149.63 145.666 149.627 145.888 149.62C147.968 149.557 149.58 149.2 150.724 148.548C151.568 148.067 152.171 147.286 152.533 146.204C152.956 145.062 153.167 143.559 153.167 141.696C153.167 139.833 152.986 138.33 152.624 137.188C151.935 135.015 149.69 133.875 145.888 133.77C145.695 133.765 145.497 133.762 145.295 133.762L139.414 134.303V129.344C139.414 128.661 139.645 128.133 140.106 127.761C140.659 127.314 141.544 127.09 142.762 127.09H145.295C147.105 126.97 148.432 126.429 149.276 125.467C150.302 124.205 150.814 122.131 150.814 119.246C150.814 115.399 150 113.085 148.371 112.304C147.467 111.823 146.652 111.552 145.929 111.492C145.265 111.372 144.24 111.312 142.852 111.312C136.579 111.312 131.784 113.205 128.466 116.992C125.149 120.719 123.49 124.896 123.49 129.524V134.303H120.504C117.178 134.303 115.407 136.455 115.189 140.761C115.174 141.062 115.166 141.374 115.166 141.696C115.166 144.942 115.739 147.136 116.885 148.278C117.33 148.68 117.977 148.975 118.828 149.162C119.247 149.254 119.715 149.32 120.233 149.36ZM105.84 139.622C100.834 134.934 95.0732 132.59 88.5588 132.59C82.0444 132.59 76.2539 134.934 71.1872 139.622C66.1204 144.311 63.5871 150.261 63.5871 157.474C63.5871 162.283 64.8538 166.61 67.3871 170.457C69.9808 174.244 73.1475 177.129 76.8872 179.113C80.627 181.036 84.4873 181.998 88.4683 181.998C92.4493 181.998 96.2795 181.096 99.959 179.293C103.699 177.43 106.865 174.575 109.459 170.728C112.053 166.821 113.35 162.373 113.35 157.384C113.35 156.053 113.264 154.765 113.094 153.522C113.051 153.209 113.003 152.899 112.949 152.592C112.929 152.481 112.909 152.37 112.888 152.26C112.221 148.722 110.828 145.559 108.709 142.77C107.867 141.661 106.911 140.612 105.84 139.622ZM221.373 74.1022C222.387 74.8446 222.998 74.9273 223.304 74.9273C223.557 74.9273 224.21 74.8552 225.366 73.9824C225.511 73.8727 225.559 73.7987 225.602 73.7022C225.66 73.5714 225.787 73.2057 225.787 72.4525C225.787 71.648 225.658 71.2548 225.601 71.1195C225.561 71.026 225.542 71.0092 225.493 70.9716C224.65 70.3214 224.001 70.1579 223.394 70.1579C222.861 70.1579 222.246 70.3002 221.397 70.9823C221.305 71.0563 221.256 71.1164 221.2 71.2483C221.13 71.4169 221.002 71.8314 221.002 72.6328C221.002 73.3626 221.123 73.721 221.181 73.8523C221.221 73.9421 221.264 74.0109 221.373 74.1022ZM217.423 79.2145C219.353 80.6571 221.313 81.3784 223.304 81.3784C225.294 81.3784 227.285 80.6271 229.275 79.1244C231.266 77.6217 232.261 75.3977 232.261 72.4525C232.261 69.5072 231.326 67.3133 229.456 65.8707C227.587 64.4282 225.566 63.7069 223.394 63.7069C221.223 63.7069 219.202 64.4582 217.332 65.9609C215.463 67.4636 214.528 69.6875 214.528 72.6328C214.528 75.5179 215.493 77.7119 217.423 79.2145ZM86.4469 158.853C87.461 159.596 88.0717 159.679 88.3779 159.679C88.6309 159.679 89.2835 159.606 90.4396 158.734C90.5849 158.624 90.6324 158.55 90.6756 158.453C90.7342 158.323 90.8608 157.957 90.8608 157.204C90.8608 156.399 90.7323 156.006 90.6746 155.871C90.6348 155.777 90.6154 155.76 90.5667 155.723C89.724 155.073 89.0748 154.909 88.4683 154.909C87.9347 154.909 87.3196 155.051 86.4708 155.734C86.3788 155.807 86.3298 155.868 86.2743 155.999C86.2034 156.168 86.0758 156.583 86.0758 157.384C86.0758 158.114 86.1973 158.472 86.255 158.604C86.2945 158.693 86.3375 158.762 86.4469 158.853ZM82.4968 163.966C84.427 165.408 86.3874 166.13 88.3779 166.13C90.3684 166.13 92.3589 165.378 94.3494 163.876C96.3399 162.373 97.3351 160.149 97.3351 157.204C97.3351 154.258 96.4002 152.064 94.5303 150.622C92.6605 149.179 90.6398 148.458 88.4683 148.458C86.2969 148.458 84.2762 149.209 82.4064 150.712C80.5365 152.215 79.6016 154.439 79.6016 157.384C79.6016 160.269 80.5666 162.463 82.4968 163.966ZM206.113 54.8711C201.047 59.5595 198.513 65.5101 198.513 72.7229C198.513 77.5315 199.78 81.8593 202.313 85.7061C204.907 89.4929 208.074 92.378 211.813 94.3616C215.553 96.285 219.413 97.2467 223.394 97.2467C227.375 97.2467 231.206 96.3451 234.885 94.5419C238.625 92.6786 241.791 89.8235 244.385 85.9766C246.979 82.0696 248.276 77.6217 248.276 72.6328C248.276 65.4199 245.773 59.4994 240.766 54.8711C235.76 50.1827 229.999 47.8386 223.485 47.8386C216.971 47.8386 211.18 50.1827 206.113 54.8711Z" fill="black"/>
</svg>
