<svg width="434" height="464" viewBox="0 0 434 464" fill="none" xmlns="http://www.w3.org/2000/svg">
<path d="M277.047 463.209L92.6677 463.313C92.2838 462.58 136.371 365.641 103.594 304.578C40.0279 185.387 30.2889 45.4808 187.371 5.51752C258.581 -12.5428 366.374 13.0631 392.729 92.256C407.041 135.154 393.567 177.003 404.039 207.535C410.671 226.503 429.66 247.463 433.361 263.672C436.851 279.112 421.806 278.763 412.416 282.885C411.963 283.269 408.926 284.387 408.926 285.156L421.5 293C422 293.333 423 295.5 423 297.5C423 300 420.5 302 417.5 303.5C419 304.167 423 307.5 423 311.5C423 313.5 421 314 416 316.5C414.167 317.333 409.7 319.3 406.5 320.5C402.5 322 401.252 325.5 401.499 329.5C403 352.206 403.655 376.121 371.645 378.007C298.515 375.737 289.858 371.195 277.047 462.859V463.209Z" fill="#176BEB"/>
<path d="M172.5 282.885L151 304.578L118 311.5C117.616 310.766 136.371 365.641 103.594 304.578C40.0279 185.387 30.2889 45.4808 187.371 5.51752C258.581 -12.5428 366.374 13.0631 392.729 92.256C407.041 135.154 333.528 91.9686 344 122.5C350.303 140.526 253.084 13.9535 320.107 122.5C322.697 121.205 338.614 138.161 342.924 141.221C343.277 141.316 343.636 141.409 344 141.5C348.178 139.666 346.954 142.52 344 144.894V158C341.196 153.833 338.721 150.335 336.575 147.415C334.591 146.98 332.859 145.3 332 141.5C331.895 141.334 331.79 141.168 331.685 141.003C325.75 133.532 324.529 133.217 328.021 135.194C325.173 130.663 322.549 126.455 320.138 122.55C319.961 122.841 314.705 123.715 307.029 126.289C314.271 138.71 325.103 161.283 327.552 164.595C328.239 164.658 328.422 164.789 328 165C327.924 165.035 327.772 164.892 327.552 164.595C325.855 164.438 321.086 164.691 314.737 165.155C317.21 169.412 319.96 174.108 320.107 176.5C321.043 190.657 315.721 177.487 303.822 166.019C281.978 167.837 253.453 170.568 254 169.5C257.19 163.272 260.97 157.868 265.083 153.177C202.955 151.122 213.198 152.218 201 239.5L172.5 282.885Z" fill="#DB0D9F"/>
<path d="M409.624 66.0605C409.624 102.545 380.048 132.121 343.563 132.121C307.079 132.121 277.503 102.545 277.503 66.0605C277.503 29.5763 307.079 4.51382e-07 343.563 4.51382e-07C380.048 4.51382e-07 409.624 29.5763 409.624 66.0605Z" fill="#DB0D9F"/>
<path d="M198.941 289.262C198.941 344.199 154.407 388.733 99.4705 388.733C44.5344 388.733 0 344.199 0 289.262C0 234.326 44.5344 189.792 99.4705 189.792C154.407 189.792 198.941 234.326 198.941 289.262Z" fill="#DB0D9F"/>
<path d="M232.821 190.126C359.19 196.089 391.256 141.141 396 106H174V349C232.935 309.256 238.741 230.152 232.821 190.126Z" fill="#DB0D9F"/>
</svg>