<svg width="356" height="446" viewBox="0 0 356 446" fill="none" xmlns="http://www.w3.org/2000/svg">
<path d="M216.005 419.627C226.784 343.656 234.786 343.926 291.986 345.856C294.653 345.946 297.427 346.039 300.313 346.129C326.395 344.592 324.532 321.231 322.976 301.725C322.823 299.809 322.673 297.931 322.553 296.114C331.674 295.113 337.391 286.736 329.644 279.577C337.734 279.577 340.077 269.105 333.674 263.041C333.674 262.571 334.945 261.954 335.878 261.501C336.31 261.292 336.669 261.118 336.797 261.009C338.68 260.183 340.817 259.557 342.964 258.928C350.4 256.751 357.963 254.537 355.539 243.816C353.799 236.192 348.278 227.394 342.57 218.297C337.419 210.087 332.116 201.634 329.3 193.582C324.982 180.991 325.214 166.248 325.467 150.254C325.762 131.544 326.084 111.121 319.18 90.4262C295.596 19.561 199.139 -3.35226 135.417 12.8089C-5.14688 48.5697 3.56808 173.764 60.4494 280.421C83.7226 323.778 63.6908 387.346 54.5954 412.083C54.508 412.106 54.4287 412.131 54.3578 412.156C51.6399 421.94 41.9009 438.429 37.3711 445.45H211.995L215.639 422.371H215.663V422.219L216.071 419.63C216.049 419.629 216.027 419.628 216.005 419.627Z" fill="#DB0D9F"/>
<path d="M130.561 274.804C120.136 292.835 100.645 304.966 78.3207 304.966C45.0178 304.966 18.0205 277.969 18.0205 244.666C18.0205 238.326 18.9989 232.215 20.8131 226.475C8.06355 215.418 0 199.101 0 180.901C0 170.098 2.84083 159.958 7.8162 151.188C3.70324 143.035 1.38672 133.821 1.38672 124.066C1.38672 98.7313 17.0104 77.0459 39.1483 68.1189C45.5905 41.7494 69.3738 22.1794 97.7279 22.1794C101.816 22.1794 105.81 22.5863 109.67 23.3618C120.701 9.14764 137.95 0 157.335 0C169.335 0 180.517 3.50533 189.911 9.54792C199.306 3.50533 210.488 0 222.488 0C246.63 0 267.459 14.188 277.091 34.6808C315.627 35.7027 346.552 67.2624 346.552 106.045C346.552 143.521 317.675 174.253 280.958 177.203C277.256 178.694 273.118 179.708 268.5 180.107C231.559 183.299 214.585 174.844 199.366 167.262C197.9 166.532 196.45 165.809 195 165.107C178.5 157.107 142.5 164.107 150.5 205.107C156.078 233.69 141.556 260.805 130.561 274.804Z" fill="#FF3100"/>
<path d="M205.12 184.197C210.056 196.03 208.228 216.467 207.73 220.631C207.696 220.951 207.649 221.272 207.599 221.591C207.306 223.461 206.97 225.327 206.634 227.193C206.466 228.125 206.298 229.058 206.135 229.992C205.506 233.494 206.199 236.611 208.663 239.26C209.244 239.858 209.766 240.512 210.219 241.212C210.501 241.677 210.797 242.139 211.093 242.601C211.96 243.954 212.829 245.311 213.36 246.788C214.702 250.549 211.658 254.242 207.662 254.052C206.126 254.002 204.645 253.469 203.428 252.53C202.461 251.774 201.491 251.022 200.521 250.271C198.361 248.598 196.202 246.926 194.081 245.212C192.276 243.744 190.325 243.588 188.227 244.266C187.484 244.509 186.752 244.788 186.02 245.067C185.489 245.269 184.957 245.472 184.422 245.661C182.066 246.496 180.045 246.347 178.336 244.341C171.438 237.193 162.841 225.904 159.035 212.737C155.22 199.537 158.864 190.383 159.03 189.979C160.171 186.425 161.917 183.093 164.373 180.032C169.144 174.081 175.193 170.319 182.998 170.051C193.088 169.705 201.308 174.986 205.12 184.197Z" fill="#E8A97C"/>
<path d="M175.582 220.449C175.801 219.779 175.98 219.096 176.118 218.405C176.493 216.28 177.487 214.313 178.977 212.751C182.318 208.952 186.832 206.377 191.802 205.434C192.123 205.369 192.452 205.353 192.778 205.385C193.846 205.492 194.52 206.429 194.056 207.385C193.367 208.745 192.607 210.067 191.778 211.346C191.256 212.183 190.715 213.011 190.174 213.838C189.6 214.717 189.026 215.596 188.475 216.483C188.306 216.907 188.204 217.355 188.173 217.81C188.612 217.694 189.029 217.506 189.407 217.254C189.944 216.743 190.486 216.236 191.029 215.73C192.781 214.096 194.534 212.46 196.09 210.654C198.13 208.288 199.076 205.234 199.715 202.16C200.744 197.662 200.449 192.962 198.866 188.628C196.037 181.125 189.544 176.793 181.529 177.071C175.484 177.276 170.821 180.188 167.133 184.784C163.625 189.174 161.991 194.243 161.713 199.804C161.695 199.985 161.741 200.166 161.844 200.316C161.952 200.127 162.061 199.938 162.169 199.749C162.491 199.187 162.813 198.625 163.127 198.062C164.894 194.723 166.898 191.515 169.123 188.462C174.313 181.657 184.875 182.003 189.436 185.711C192.062 187.877 193.899 190.851 194.661 194.17C195.066 195.834 195.345 197.527 195.495 199.233C195.637 200.668 195.447 200.843 194.032 201.121C192.959 201.336 191.866 201.497 190.778 201.609C188.168 201.882 186.026 203.204 183.948 204.653C180.143 207.317 177.206 210.668 175.787 215.195C175.287 216.903 175.217 218.708 175.582 220.449Z" fill="#176BEB"/>
<path d="M176.919 232.972C178.436 235.933 180.295 236.329 182.607 235.514C183.021 235.367 183.435 235.208 183.849 235.048C184.411 234.832 184.972 234.616 185.534 234.431C186.287 234.137 187.105 234.05 187.903 234.18C188.701 234.309 189.45 234.65 190.071 235.167C191.976 236.705 193.916 238.198 195.857 239.693L195.858 239.694C196.338 240.063 196.817 240.432 197.296 240.802C198.234 241.528 199.378 241.94 200.564 241.978C203.652 242.129 206.009 239.27 204.955 236.368C204.541 235.208 203.853 234.143 203.167 233.08C202.947 232.739 202.726 232.398 202.516 232.055C202.167 231.514 201.765 231.009 201.316 230.548C199.413 228.499 198.876 226.089 199.364 223.391C199.415 223.109 199.466 222.827 199.517 222.545C199.858 220.666 200.199 218.786 200.491 216.898C200.662 215.791 200.789 214.659 200.14 213.615C199.618 212.776 199.125 212.683 198.535 213.464C198.211 213.892 197.96 214.321 197.713 214.743C197.51 215.091 197.309 215.434 197.071 215.771C196.146 217.238 195.129 218.646 194.027 219.986C192.393 221.806 190.081 222.484 187.798 223.123L187.445 223.223C186.43 223.511 185.413 223.8 184.412 224.128C184.235 224.187 184.089 224.34 183.943 224.493C183.872 224.569 183.8 224.644 183.724 224.708C183.794 224.787 183.859 224.88 183.925 224.973C184.072 225.18 184.218 225.388 184.407 225.435C185.024 225.596 185.665 225.649 186.3 225.591C187.749 225.421 189.193 225.21 190.637 224.999C191.181 224.919 191.726 224.839 192.271 224.762L194.222 224.498C194.271 224.846 194.314 225.186 194.356 225.521C194.448 226.255 194.537 226.963 194.681 227.66C195.031 229.82 196.11 231.795 197.74 233.255C198.83 234.282 199.828 235.404 200.72 236.607C201.125 237.094 201.496 237.768 200.994 238.446C200.623 238.958 199.691 239.109 198.92 238.626C197.515 237.748 196.169 236.772 194.832 235.792C193.496 234.811 192.164 233.811 190.886 232.753C189.529 231.626 188.017 231.499 186.417 231.923C185.443 232.212 184.486 232.552 183.549 232.943C183.319 233.03 183.097 233.14 182.876 233.249C182.666 233.353 182.455 233.457 182.236 233.543C180.387 234.284 178.563 234.548 176.919 232.972Z" fill="#176BEB"/>
<path d="M172.946 222.005C173.145 222.511 173.344 223.016 173.528 223.523L173.148 223.713C172.783 222.936 172.403 222.165 172.023 221.394C171.21 219.744 170.398 218.095 169.733 216.395C167.85 211.615 167.152 206.653 168.338 201.59C169.572 196.297 172.289 191.906 176.748 188.691C177.81 187.863 179.072 187.331 180.407 187.15C181.89 186.984 183.109 187.842 183.226 189.13C183.288 189.871 183.079 190.609 182.638 191.206C182.196 191.804 181.552 192.221 180.826 192.379C180.403 192.448 179.991 192.572 179.602 192.75C176.904 194.135 174.587 195.96 173.182 198.726C169.762 205.468 169.801 212.424 172.021 219.483C172.288 220.336 172.617 221.172 172.946 222.005Z" fill="#176BEB"/>
</svg>